<svg id="visual" viewBox="0 0 900 600" width="900" height="600" xmlns="http://www.w3.org/2000/svg" xmlns:xlink="http://www.w3.org/1999/xlink" version="1.1"><g transform="translate(456.38778961082113 299.0020597639457)"><path d="M121.8 -161.2C161.8 -138.7 200.7 -108.3 217.5 -68C234.3 -27.7 228.9 22.5 204.8 57.3C180.7 92.1 138 111.6 100.7 145.3C63.5 179 31.7 227 1.2 225.4C-29.4 223.8 -58.8 172.6 -104.4 141.6C-150.1 110.6 -212 99.8 -232 68.3C-252 36.8 -230.2 -15.5 -213.9 -70.7C-197.6 -126 -187 -184.4 -152.3 -208.6C-117.6 -232.8 -58.8 -222.9 -8.9 -210.6C40.9 -198.4 81.9 -183.7 121.8 -161.2" fill="#2c6e49"></path></g></svg>