<svg id="visual" viewBox="0 0 900 600" width="900" height="600" xmlns="http://www.w3.org/2000/svg" xmlns:xlink="http://www.w3.org/1999/xlink" version="1.1"><g transform="translate(421.6740442226075 310.0237143891873)"><path d="M151.1 -215.9C189.3 -180.2 209.2 -127.3 222.1 -75.1C234.9 -23 240.6 28.5 231.8 81.4C223 134.3 199.7 188.5 158.6 216.3C117.6 244.1 58.8 245.6 4.9 238.8C-49 232.1 -98 217.2 -127.7 185.7C-157.4 154.2 -167.9 106 -174.1 62.3C-180.4 18.6 -182.4 -20.7 -172.6 -57.7C-162.8 -94.7 -141 -129.5 -110.3 -167.6C-79.5 -205.8 -39.8 -247.4 8.3 -258.9C56.4 -270.3 112.9 -251.7 151.1 -215.9" fill="#211404"></path></g></svg>