      <svg
        id="visual"
        viewBox="0 0 900 100"
        width="900"
        height="100"
        xmlns="http://www.w3.org/2000/svg"
        xmlns:xlink="http://www.w3.org/1999/xlink"
        version="1.1"
      >
        <rect x="0" y="0" width="900" height="100" fill="#ddd3c6"></rect>
        <path
          d="M0 55L30 53C60 51 120 47 180 45.5C240 44 300 45 360 46C420 47 480 48 540 50.2C600 52.3 660 55.7 720 54.3C780 53 840 47 870 44L900 41L900 101L870 101C840 101 780 101 720 101C660 101 600 101 540 101C480 101 420 101 360 101C300 101 240 101 180 101C120 101 60 101 30 101L0 101Z"
          fill="#4b3118"
        ></path>
      </svg>