      <svg
        id="visual"
        viewBox="0 0 900 200"
        width="900"
        height="200"
        xmlns="http://www.w3.org/2000/svg"
        xmlns:xlink="http://www.w3.org/1999/xlink"
        version="1.1"
      >
        <path
          d="M0 133L30 133C60 133 120 133 180 130.2C240 127.3 300 121.7 360 122.7C420 123.7 480 131.3 540 134.5C600 137.7 660 136.3 720 135.5C780 134.7 840 134.3 870 134.2L900 134L900 0L870 0C840 0 780 0 720 0C660 0 600 0 540 0C480 0 420 0 360 0C300 0 240 0 180 0C120 0 60 0 30 0L0 0Z"
          fill="#7b5226"
        ></path>
        <path
          d="M0 79L30 76.5C60 74 120 69 180 68C240 67 300 70 360 72.8C420 75.7 480 78.3 540 76.3C600 74.3 660 67.7 720 64.7C780 61.7 840 62.3 870 62.7L900 63L900 0L870 0C840 0 780 0 720 0C660 0 600 0 540 0C480 0 420 0 360 0C300 0 240 0 180 0C120 0 60 0 30 0L0 0Z"
          fill="#4b3118"
        ></path>
      </svg>