      <svg
        id="visual"
        viewBox="0 0 900 300"
        width="900"
        height="300"
        xmlns="http://www.w3.org/2000/svg"
        xmlns:xlink="http://www.w3.org/1999/xlink"
        version="1.1"
      >
        <path
          d="M0 131L30 127.8C60 124.7 120 118.3 180 112.5C240 106.7 300 101.3 360 97.8C420 94.3 480 92.7 540 95C600 97.3 660 103.7 720 102.3C780 101 840 92 870 87.5L900 83L900 301L870 301C840 301 780 301 720 301C660 301 600 301 540 301C480 301 420 301 360 301C300 301 240 301 180 301C120 301 60 301 30 301L0 301Z"
          fill="#7b5226"
        ></path>
        <path
          d="M0 153L30 155.5C60 158 120 163 180 164.7C240 166.3 300 164.7 360 161.5C420 158.3 480 153.7 540 154.3C600 155 660 161 720 161.7C780 162.3 840 157.7 870 155.3L900 153L900 301L870 301C840 301 780 301 720 301C660 301 600 301 540 301C480 301 420 301 360 301C300 301 240 301 180 301C120 301 60 301 30 301L0 301Z"
          fill="#4b3118"
        ></path>
        <path
          d="M0 223L30 224.8C60 226.7 120 230.3 180 233.8C240 237.3 300 240.7 360 236.3C420 232 480 220 540 213.3C600 206.7 660 205.3 720 205.8C780 206.3 840 208.7 870 209.8L900 211L900 301L870 301C840 301 780 301 720 301C660 301 600 301 540 301C480 301 420 301 360 301C300 301 240 301 180 301C120 301 60 301 30 301L0 301Z"
          fill="#211404"
        ></path>
      </svg>