        <svg
          id="visual"
          viewBox="0 0 400 340"
          width="400"
          height="340"
          xmlns="http://www.w3.org/2000/svg"
          xmlns:xlink="http://www.w3.org/1999/xlink"
          version="1.1"
        >
          <path
            d="M0 90L22.2 97.3C44.3 104.7 88.7 119.3 133.2 122C177.7 124.7 222.3 115.3 266.8 115.3C311.3 115.3 355.7 124.7 377.8 129.3L400 134L400 341L377.8 341C355.7 341 311.3 341 266.8 341C222.3 341 177.7 341 133.2 341C88.7 341 44.3 341 22.2 341L0 341Z"
            fill="#7b5226"
          ></path>
          <path
            d="M0 170L22.2 168.7C44.3 167.3 88.7 164.7 133.2 169.5C177.7 174.3 222.3 186.7 266.8 180.7C311.3 174.7 355.7 150.3 377.8 138.2L400 126L400 341L377.8 341C355.7 341 311.3 341 266.8 341C222.3 341 177.7 341 133.2 341C88.7 341 44.3 341 22.2 341L0 341Z"
            fill="#5b3c1d"
          ></path>
          <path
            d="M0 167L22.2 169.7C44.3 172.3 88.7 177.7 133.2 187.5C177.7 197.3 222.3 211.7 266.8 210.2C311.3 208.7 355.7 191.3 377.8 182.7L400 174L400 341L377.8 341C355.7 341 311.3 341 266.8 341C222.3 341 177.7 341 133.2 341C88.7 341 44.3 341 22.2 341L0 341Z"
            fill="#3c2713"
          ></path>
          <path
            d="M0 253L22.2 259C44.3 265 88.7 277 133.2 278.3C177.7 279.7 222.3 270.3 266.8 263.7C311.3 257 355.7 253 377.8 251L400 249L400 341L377.8 341C355.7 341 311.3 341 266.8 341C222.3 341 177.7 341 133.2 341C88.7 341 44.3 341 22.2 341L0 341Z"
            fill="#211404"
          ></path>
        </svg>
        