<svg
          id="visual"
          viewBox="0 0 1000 300"
          width="1000"
          height="300"
          xmlns="http://www.w3.org/2000/svg"
          xmlns:xlink="http://www.w3.org/1999/xlink"
          version="1.1"
        >
          <path
            d="M0 79L55.5 85.5C111 92 222 105 333.2 107.3C444.3 109.7 555.7 101.3 666.8 101.3C778 101.3 889 109.7 944.5 113.8L1000 118L1000 301L944.5 301C889 301 778 301 666.8 301C555.7 301 444.3 301 333.2 301C222 301 111 301 55.5 301L0 301Z"
            fill="#7b5226"
          ></path>
          <path
            d="M0 149L55.5 148C111 147 222 145 333.2 149.3C444.3 153.7 555.7 164.3 666.8 159C778 153.7 889 132.3 944.5 121.7L1000 111L1000 301L944.5 301C889 301 778 301 666.8 301C555.7 301 444.3 301 333.2 301C222 301 111 301 55.5 301L0 301Z"
            fill="#5b3c1d"
          ></path>
          <path
            d="M0 147L55.5 149.5C111 152 222 157 333.2 165.7C444.3 174.3 555.7 186.7 666.8 185.3C778 184 889 169 944.5 161.5L1000 154L1000 301L944.5 301C889 301 778 301 666.8 301C555.7 301 444.3 301 333.2 301C222 301 111 301 55.5 301L0 301Z"
            fill="#3c2713"
          ></path>
          <path
            d="M0 223L55.5 228.3C111 233.7 222 244.3 333.2 245.5C444.3 246.7 555.7 238.3 666.8 232.5C778 226.7 889 223.3 944.5 221.7L1000 220L1000 301L944.5 301C889 301 778 301 666.8 301C555.7 301 444.3 301 333.2 301C222 301 111 301 55.5 301L0 301Z"
            fill="#211404"
          ></path>
        </svg>