<svg id="visual" viewBox="0 0 960 540" width="960" height="540" xmlns="http://www.w3.org/2000/svg" xmlns:xlink="http://www.w3.org/1999/xlink" version="1.1"><path d="M0 145L40 152.2C80 159.3 160 173.7 240 185.3C320 197 400 206 480 199.2C560 192.3 640 169.7 720 172.7C800 175.7 880 204.3 920 218.7L960 233L960 541L920 541C880 541 800 541 720 541C640 541 560 541 480 541C400 541 320 541 240 541C160 541 80 541 40 541L0 541Z" fill="#7b5226"></path><path d="M0 291L40 277.7C80 264.3 160 237.7 240 235.8C320 234 400 257 480 276.2C560 295.3 640 310.7 720 301.8C800 293 880 260 920 243.5L960 227L960 541L920 541C880 541 800 541 720 541C640 541 560 541 480 541C400 541 320 541 240 541C160 541 80 541 40 541L0 541Z" fill="#5b3c1d"></path><path d="M0 308L40 322C80 336 160 364 240 373C320 382 400 372 480 366.5C560 361 640 360 720 355.3C800 350.7 880 342.3 920 338.2L960 334L960 541L920 541C880 541 800 541 720 541C640 541 560 541 480 541C400 541 320 541 240 541C160 541 80 541 40 541L0 541Z" fill="#3c2713"></path><path d="M0 465L40 453.7C80 442.3 160 419.7 240 407.3C320 395 400 393 480 397.2C560 401.3 640 411.7 720 417.3C800 423 880 424 920 424.5L960 425L960 541L920 541C880 541 800 541 720 541C640 541 560 541 480 541C400 541 320 541 240 541C160 541 80 541 40 541L0 541Z" fill="#211404"></path></svg>