<svg id="visual" viewBox="0 0 900 600" width="900" height="600" xmlns="http://www.w3.org/2000/svg" xmlns:xlink="http://www.w3.org/1999/xlink" version="1.1"><rect x="0" y="0" width="900" height="600" fill="#ddd3c6"></rect><path d="M0 349L37.5 353.2C75 357.3 150 365.7 225 367.3C300 369 375 364 450 357C525 350 600 341 675 340C750 339 825 346 862.5 349.5L900 353L900 601L862.5 601C825 601 750 601 675 601C600 601 525 601 450 601C375 601 300 601 225 601C150 601 75 601 37.5 601L0 601Z" fill="#7b5226"></path><path d="M0 403L37.5 407.3C75 411.7 150 420.3 225 422.5C300 424.7 375 420.3 450 425C525 429.7 600 443.3 675 448.3C750 453.3 825 449.7 862.5 447.8L900 446L900 601L862.5 601C825 601 750 601 675 601C600 601 525 601 450 601C375 601 300 601 225 601C150 601 75 601 37.5 601L0 601Z" fill="#4b3118"></path><path d="M0 532L37.5 524.2C75 516.3 150 500.7 225 493.2C300 485.7 375 486.3 450 488.3C525 490.3 600 493.7 675 499.5C750 505.3 825 513.7 862.5 517.8L900 522L900 601L862.5 601C825 601 750 601 675 601C600 601 525 601 450 601C375 601 300 601 225 601C150 601 75 601 37.5 601L0 601Z" fill="#211404"></path></svg>