        <svg
          width="100"
          height="100"
          viewBox="0 0 54 54"
          fill="none"
          xmlns="http://www.w3.org/2000/svg"
        >
          <path
            d="M51.3216 30.9643C49.5001 30.4286 47.4644 30.4286 45.5359 31.0714L38.893 33.2143C38.7859 32.7857 38.4644 32.25 37.9287 31.7143C36.8573 30.5357 35.143 29.7857 33.4287 29.7857H27.7501C27.4287 29.7857 27.0001 29.6786 26.7859 29.4643C22.6073 25.9286 17.7859 27.5357 16.393 28.1786C16.0716 28.2857 15.7501 28.5 15.5359 28.7143L9.00015 34.1786C8.46444 33.6429 7.71444 33.2143 6.96444 33.1072C6.00015 33 5.03586 33.2143 4.17872 33.8572L1.71444 35.6786C0.107293 36.9643 -0.214136 39.2143 0.964435 40.9286L9.53586 52.2857C10.1787 53.0357 11.0359 53.5714 12.0001 53.6786C12.2144 53.6786 12.3216 53.6786 12.5359 53.6786C13.2859 53.6786 14.143 53.4643 14.7859 52.9286L17.2501 51.1072C18.5359 50.1429 19.0716 48.3214 18.4287 46.9286L19.7144 45.9643C20.0359 45.75 20.3573 45.6429 20.6787 45.6429L32.7859 45.4286C34.9287 45.4286 37.0716 44.7857 39.0001 43.7143L51.4287 36.5357C52.0716 36.2143 54.0001 34.9286 53.7859 33.2143C53.6787 32.1429 52.8216 31.3929 51.3216 30.9643ZM15.8573 49.3929L13.393 51.2143C13.0716 51.5357 12.643 51.6429 12.3216 51.6429C11.893 51.5357 11.5716 51.3214 11.2501 51L2.67872 39.6429C2.14301 39 2.25015 37.9286 3.00015 37.3929L5.46444 35.5714C5.78586 35.3572 6.10729 35.25 6.42872 35.25C6.53586 35.25 6.53586 35.25 6.64301 35.25C7.07158 35.3572 7.39301 35.4643 7.60729 35.7857L13.6073 43.7143L16.2859 47.1429C16.7144 47.8929 16.6073 48.9643 15.8573 49.3929ZM50.3573 34.6072L37.9287 41.7857C36.3216 42.6429 34.6073 43.1786 32.7859 43.1786L20.5716 43.3929C19.7144 43.3929 18.9644 43.7143 18.3216 44.1429L17.2501 45L14.7859 41.7857L10.2859 35.7857L16.8216 30.3214C16.9287 30.2143 17.0359 30.2143 17.143 30.1072C18.2144 29.6786 22.0716 28.2857 25.2859 31.0714C25.9287 31.6072 26.7859 31.9286 27.643 31.9286H33.3216C34.5002 31.9286 35.5716 32.3572 36.3216 33.1072C36.5359 33.4286 36.8573 33.8572 36.8573 34.1786C36.8573 34.3929 36.5359 35.0357 34.8216 35.7857H26.6787C26.0359 35.7857 25.6073 36.2143 25.6073 36.8572C25.6073 37.5 26.0359 37.9286 26.6787 37.9286H35.3573L35.5716 37.8214C37.1787 37.0714 38.143 36.3214 38.6787 35.4643L46.2859 33.1072C47.7859 32.5714 49.393 32.5714 50.7859 33C51.4287 33.2143 51.643 33.3214 51.7501 33.4286C51.5359 33.75 50.893 34.2857 50.3573 34.6072Z"
            fill="#7b5226"
          />
          <path
            d="M6.75016 37.8214L4.82159 39.2143C4.39302 39.5357 4.28587 40.2857 4.6073 40.7143C4.82159 41.0357 5.14302 41.1429 5.46445 41.1429C5.67873 41.1429 5.89302 41.0357 6.1073 40.9286L8.03587 39.5357C8.46445 39.2143 8.57159 38.4643 8.25016 38.0357C7.82159 37.5 7.17873 37.3929 6.75016 37.8214Z"
            fill="#7b5226"
          />
          <path
            d="M26.1432 12C27.9646 13.5 30.4289 13.8214 32.4646 13.8214C33.6432 13.8214 34.8218 13.7143 35.5718 13.5V20.1429C31.6075 20.6786 28.5003 23.7857 28.5003 27.4286V28.5H45.3218V27.4286C45.3218 23.5714 41.8932 20.4643 37.6075 20.1429V12.4286C39.1075 13.0714 41.4646 13.8214 43.8218 13.8214C44.8932 13.8214 45.9646 13.7143 46.9289 13.2857C51.4289 11.4643 52.9289 5.14286 53.036 4.82143C53.1432 4.39286 52.9289 3.96429 52.6075 3.64286C52.3932 3.53572 46.8218 0.107148 42.3218 1.92858C39.9646 2.89286 38.1432 5.14286 37.0718 7.07143C36.6432 5.35715 35.6789 3.42858 33.9646 2.14286C30.0003 -1.07142 23.4646 0.750006 23.1432 0.857148C22.7146 0.964291 22.3932 1.39286 22.3932 1.82143C22.3932 2.14286 22.0718 8.89286 26.1432 12ZM43.0718 26.4643H30.7503C31.3932 24.1071 33.8575 22.2857 36.8575 22.2857C39.9646 22.2857 42.536 24.1071 43.0718 26.4643ZM43.1789 4.07143C45.8575 3.00001 49.3932 4.50001 50.786 5.25001C50.2503 6.85715 48.8575 10.2857 46.1789 11.4643C44.036 12.3214 41.3575 11.6786 39.4289 10.9286L47.1432 7.92858C47.5718 7.71429 47.786 7.39286 47.786 6.96429C47.786 6.85715 47.786 6.75001 47.6789 6.53572C47.4646 6.00001 46.8218 5.67858 46.286 5.89286L38.5718 8.89286C39.536 7.07143 41.036 4.92858 43.1789 4.07143ZM32.6789 3.75001C34.6075 5.25001 35.2503 8.03572 35.4646 9.96429L28.7146 4.60715C28.286 4.28572 27.536 4.28572 27.2146 4.82143C27.1075 5.03572 27.0003 5.25001 27.0003 5.46429C27.0003 5.78572 27.1075 6.10715 27.4289 6.32143L34.1789 11.6786C32.2503 11.8929 29.4646 11.8929 27.536 10.3929C25.0718 8.46429 24.7503 4.50001 24.6432 2.78572C26.2503 2.35715 30.2146 1.82143 32.6789 3.75001Z"
            fill="#7b5226"
          />
        </svg>