<svg id="visual" viewBox="0 0 900 600" width="900" height="600" xmlns="http://www.w3.org/2000/svg" xmlns:xlink="http://www.w3.org/1999/xlink" version="1.1"><rect x="0" y="0" width="900" height="600" fill="#4c956c"></rect><path d="M0 398L30 393C60 388 120 378 180 379.8C240 381.7 300 395.3 360 399.3C420 403.3 480 397.7 540 394.2C600 390.7 660 389.3 720 388.8C780 388.3 840 388.7 870 388.8L900 389L900 601L870 601C840 601 780 601 720 601C660 601 600 601 540 601C480 601 420 601 360 601C300 601 240 601 180 601C120 601 60 601 30 601L0 601Z" fill="#2c6e49" stroke-linecap="round" stroke-linejoin="miter"></path></svg>